<svg xmlns="http://www.w3.org/2000/svg" viewBox="0 0 72 72"><g style="display:inline"><ellipse cx="36" cy="36" rx="35.542" ry="35.695" style="fill:#bce5eb;fill-opacity:1;stroke:#000;stroke-width:.75599998;stroke-linecap:round;stroke-linejoin:round;stroke-miterlimit:4;stroke-dasharray:none;stroke-opacity:1"/></g><path d="M51.935 35.872c4.2.928 6.765 5.482 6.765 5.482s-4.245 3.05-8.445 2.123-6.765-5.483-6.765-5.483 4.247-3.048 8.445-2.122z" fill="#B1CC33"/><path d="M22.362 19.992c4.067 1.4 6.098 6.216 6.098 6.216s-4.564 2.548-8.632 1.149-6.098-6.216-6.098-6.216 4.566-2.546 8.632-1.149z" fill="#5C9E31"/><g stroke-width="2" stroke-linejoin="round" stroke-linecap="round" stroke="#000" fill="none"><path d="M36 63.166v-12l-5-22M36 51.166l5-10M22.362 19.992c4.067 1.4 6.098 6.216 6.098 6.216s-4.564 2.548-8.632 1.149-6.098-6.216-6.098-6.216 4.566-2.546 8.632-1.149zM51.935 35.872c4.2.928 6.765 5.482 6.765 5.482s-4.245 3.05-8.445 2.123-6.765-5.483-6.765-5.483 4.247-3.048 8.445-2.122z"/></g></svg>