<?xml version="1.0" standalone="no"?>
<!DOCTYPE svg PUBLIC "-//W3C//DTD SVG 20010904//EN"
 "http://www.w3.org/TR/2001/REC-SVG-20010904/DTD/svg10.dtd">
<svg version="1.0" xmlns="http://www.w3.org/2000/svg"
 width="700.000000pt" height="700.000000pt" viewBox="0 0 700.000000 700.000000"
 preserveAspectRatio="xMidYMid meet">
<metadata>
Created by potrace 1.14, written by Peter Selinger 2001-2017
</metadata>
<g transform="translate(0.000000,700.000000) scale(0.100000,-0.100000)"
fill="#000000" stroke="none">
<path d="M1898 5195 c-2 -1 -39 -5 -83 -8 -78 -6 -123 -13 -157 -23 -9 -3 -26
-7 -39 -9 -92 -18 -308 -106 -346 -141 -46 -43 -44 -79 10 -182 83 -162 211
-320 352 -437 77 -64 227 -140 330 -166 220 -56 560 -8 805 116 122 61 122
110 -1 308 -68 109 -128 185 -212 267 -162 159 -341 249 -527 266 -117 10
-129 11 -132 9z"/>
<path d="M2964 4248 c-26 -12 -44 -48 -44 -86 0 -15 29 -153 64 -307 36 -154
67 -291 69 -305 3 -14 15 -65 27 -115 12 -49 24 -101 26 -115 3 -14 21 -92 40
-174 19 -82 37 -165 40 -185 3 -20 8 -39 10 -42 3 -5 111 -476 121 -529 2 -13
19 -87 38 -165 18 -77 37 -162 41 -190 4 -27 8 -311 8 -630 1 -612 1 -612 46
-631 47 -19 78 -15 112 14 l33 30 1 594 2 593 241 482 c174 347 241 491 241
516 0 35 -38 86 -66 88 -8 1 -20 2 -26 3 -25 4 -64 -15 -77 -37 -8 -12 -95
-183 -193 -381 -99 -197 -181 -356 -183 -354 -2 2 -6 15 -9 28 -3 14 -7 34
-10 45 -15 65 -28 122 -31 135 -2 8 -9 38 -15 65 -6 28 -13 59 -16 70 -2 11
-20 90 -39 175 -20 85 -39 166 -41 180 -3 14 -16 72 -30 129 -13 57 -27 117
-29 134 -3 17 -8 33 -10 36 -2 4 -6 26 -10 51 -4 25 -8 47 -10 51 -2 3 -27
106 -55 230 -133 592 -125 561 -154 586 -29 25 -75 29 -112 11z"/>
<path d="M4818 3625 c-2 -1 -28 -5 -58 -9 -141 -15 -315 -74 -467 -157 -198
-108 -204 -138 -65 -326 127 -171 301 -319 465 -396 282 -132 653 -87 1001
120 78 46 103 71 106 108 4 40 -1 54 -46 121 -180 266 -419 452 -659 514 -66
17 -265 35 -277 25z"/>
</g>
</svg>
